<?xml version="1.0" encoding="utf-8" ?>
<svg
  version="1.1"
  id="Layer_1"
  xmlns="http://www.w3.org/2000/svg"
  xmlns:xlink="http://www.w3.org/1999/xlink"
  x="0px"
  y="0px"
  viewBox="0 0 90.4 122.88"
  style="enable-background:new 0 0 90.4 122.88"
  xml:space="preserve"
><style type="text/css">.st0{fill-rule:evenodd;clip-rule:evenodd;}</style><g
  ><path
      class="st0"
      d="M58.73,0H31.28c-0.72,0-1.42,0.14-2.07,0.42c-0.66,0.27-1.26,0.68-1.76,1.17l-0.02,0.02 c-0.49,0.5-0.89,1.09-1.16,1.74c-0.26,0.63-0.42,1.33-0.42,2.07v12.01c0,1.48,0.61,2.84,1.59,3.82l0.02,0.03 c0.97,0.97,2.33,1.57,3.8,1.57h27.45c1.48,0,2.84-0.61,3.82-1.59l0.02-0.02c0.97-0.98,1.57-2.33,1.57-3.8V5.41 c0-0.72-0.14-1.43-0.42-2.07c-0.27-0.66-0.68-1.26-1.19-1.76c-0.5-0.5-1.1-0.9-1.76-1.17C60.16,0.14,59.47,0,58.73,0L58.73,0 L58.73,0z M76.84,88.72V43.91c0-2.03-0.41-3.96-1.14-5.73c-0.76-1.84-1.88-3.49-3.27-4.88c-1.39-1.39-3.04-2.51-4.88-3.27 c-1.77-0.73-3.7-1.14-5.73-1.14H27.54c-2.03,0-3.96,0.41-5.73,1.14c-1.84,0.77-3.49,1.88-4.88,3.27c-1.39,1.39-2.51,3.04-3.27,4.88 c-0.73,1.77-1.14,3.7-1.14,5.73v44.67c1.37,1.16,2.73,2.68,4.01,4.59c1.17,1.75,2.27,3.83,3.27,6.24 c3.72-1.88,7.57-3.27,11.53-4.19c4.08-0.95,8.28-1.4,12.61-1.38c4.31,0.02,8.73,0.53,13.26,1.49c4.41,0.94,8.93,2.31,13.54,4.11 c0.47-2.17,1.23-4.15,2.21-5.87C74.01,91.63,75.36,90,76.84,88.72L76.84,88.72L76.84,88.72z M25.48,50.62l-0.04-0.06 c-0.33-0.53-0.44-1.15-0.31-1.72c0.12-0.57,0.45-1.11,0.97-1.46l0.06-0.04c0.53-0.33,1.15-0.44,1.72-0.31 c0.59,0.13,1.13,0.47,1.48,1c1.68,2.56,3.21,5.24,4.55,8.05c1.34,2.82,2.5,5.78,3.45,8.91c0.95,3.12,1.68,6.4,2.19,9.85 c0.5,3.45,0.77,7.08,0.78,10.92c0,0.65-0.26,1.23-0.69,1.65c-0.42,0.43-1.02,0.69-1.65,0.69c-0.65,0-1.23-0.26-1.65-0.69 c-0.43-0.43-0.69-1.01-0.69-1.66c-0.01-3.59-0.26-6.98-0.73-10.22c-0.47-3.23-1.16-6.28-2.04-9.19c-0.88-2.9-1.96-5.65-3.2-8.27 C28.45,55.46,27.04,52.98,25.48,50.62L25.48,50.62L25.48,50.62z M60.74,48.02c0.36-0.54,0.9-0.89,1.49-1 c0.59-0.13,1.21-0.02,1.75,0.32l0.03,0.02c0.53,0.36,0.88,0.89,0.99,1.47c0.11,0.59,0.02,1.21-0.32,1.75l-0.02,0.02 c-1.56,2.36-2.97,4.85-4.21,7.48c-1.24,2.62-2.32,5.37-3.2,8.27c-0.88,2.91-1.57,5.96-2.04,9.19c-0.47,3.23-0.72,6.63-0.74,10.22 c0,0.65-0.26,1.23-0.69,1.65c-0.43,0.43-1.01,0.69-1.66,0.69c-0.65,0-1.23-0.26-1.66-0.69l-0.02-0.02c-0.41-0.42-0.67-1-0.67-1.64 c0.01-3.83,0.28-7.46,0.79-10.92c0.5-3.45,1.24-6.73,2.18-9.85c0.95-3.13,2.1-6.1,3.44-8.91C57.54,53.25,59.06,50.58,60.74,48.02 L60.74,48.02L60.74,48.02z M9.34,93.15c-0.2-0.07-0.38-0.18-0.54-0.29c-0.17-0.13-0.32-0.27-0.46-0.43 c-0.36-0.22-0.7-0.41-1.05-0.55c-0.36-0.16-0.71-0.27-1.06-0.36c-0.41-0.09-0.8-0.13-1.18-0.11c-0.38,0.01-0.74,0.08-1.09,0.2 c-0.38,0.13-0.73,0.32-1.08,0.59c-0.34,0.26-0.66,0.57-0.96,0.96C0.26,95.3-0.15,98,0.04,100.84c0.19,2.89,1.01,5.94,1.74,8.72 l0.03,0.14c0.19,0.73,0.38,1.43,0.5,1.91l1.82,7.2c0.26,1.06,0.47,2.03,0.64,2.82l0.01,0.03c0.1,0.53,0.17,0.91,0.21,1.15 c0,0.03,0,0.04-0.01,0.06c0.02-0.01,0.06-0.02,0.11-0.02c0.31-0.02,0.85-0.06,1.67-0.07l1.48-0.02h74.37l0.08,0.01h0.55 c0.9,0,1.47,0.03,1.81,0.05c0.05,0,0.09,0.01,0.14,0.03v-0.04c0.04-0.2,0.1-0.52,0.21-0.97l0.01-0.02 c0.18-0.74,0.41-1.67,0.72-2.71l2.18-7.3c1.4-4.67,2.03-8.48,2.07-11.51c0.05-3.4-0.61-5.8-1.7-7.34 c-0.38-0.52-0.81-0.93-1.28-1.23c-0.49-0.31-1.01-0.51-1.57-0.6c-0.59-0.09-1.23-0.07-1.87,0.06c-0.66,0.14-1.34,0.38-2.02,0.73 c-1.81,0.93-3.52,2.57-4.81,4.79c-1.16,1.99-1.96,4.44-2.17,7.28l-0.01,0.06c-0.01,0.1-0.03,0.21-0.05,0.31v0.01 c-0.03,0.12-0.06,0.23-0.11,0.34c-0.25,0.6-0.72,1.03-1.28,1.26c-0.55,0.23-1.19,0.24-1.79-0.01c-4.9-2.07-9.68-3.65-14.32-4.72 c-4.63-1.07-9.13-1.62-13.48-1.65c-4.31-0.02-8.49,0.47-12.52,1.51c-4.04,1.03-7.94,2.61-11.69,4.74l-0.19,0.09 c-0.06,0.03-0.14,0.06-0.2,0.08l-0.02,0.01c-0.61,0.2-1.23,0.15-1.77-0.11c-0.54-0.26-0.98-0.73-1.19-1.34 c-0.96-2.76-2.04-5.05-3.19-6.92C11.92,95.71,10.63,94.2,9.34,93.15L9.34,93.15L9.34,93.15z"
    /></g></svg>
